<svg width="256" height="256" viewBox="0 0 256 256" xmlns="http://www.w3.org/2000/svg">
  <!-- Background with teal-blue gradient feel -->
  <defs>
    <linearGradient id="bgGrad" x1="0%" y1="0%" x2="100%" y2="100%">
      <stop offset="0%" style="stop-color:#14B8A6"/>
      <stop offset="100%" style="stop-color:#3584e4"/>
    </linearGradient>
  </defs>
  <rect x="8" y="8" width="240" height="240" rx="32" fill="url(#bgGrad)"/>
  
  <!-- Paper background -->
  <rect x="40" y="28" width="176" height="204" rx="8" fill="#ffffff"/>
  
  <!-- Checkbox 1 - checked (teal) -->
  <rect x="56" y="56" width="24" height="24" rx="4" fill="none" stroke="#14B8A6" stroke-width="3"/>
  <path d="M62 68 L68 74 L76 62" fill="none" stroke="#14B8A6" stroke-width="3" stroke-linecap="round" stroke-linejoin="round"/>
  <rect x="96" y="64" width="104" height="8" rx="4" fill="#14B8A6" opacity="0.7"/>
  
  <!-- Checkbox 2 - checked (teal) -->
  <rect x="56" y="104" width="24" height="24" rx="4" fill="none" stroke="#14B8A6" stroke-width="3"/>
  <path d="M62 116 L68 122 L76 110" fill="none" stroke="#14B8A6" stroke-width="3" stroke-linecap="round" stroke-linejoin="round"/>
  <rect x="96" y="112" width="80" height="8" rx="4" fill="#14B8A6" opacity="0.7"/>
  
  <!-- Checkbox 3 - unchecked (blue) -->
  <rect x="56" y="152" width="24" height="24" rx="4" fill="none" stroke="#3584e4" stroke-width="3"/>
  <rect x="96" y="160" width="96" height="8" rx="4" fill="#3584e4" opacity="0.5"/>
  
  <!-- Checkbox 4 - unchecked (lighter blue) -->
  <rect x="56" y="200" width="24" height="24" rx="4" fill="none" stroke="#99c1f1" stroke-width="3"/>
  <rect x="96" y="208" width="64" height="8" rx="4" fill="#99c1f1"/>
</svg>
